<svg xmlns="http://www.w3.org/2000/svg" width="21.909" height="48.277" viewBox="0 0 21.909 48.277">
  <g id="Grupo_55" data-name="Grupo 55" transform="translate(-1736.092 -56.319)">
    <path id="Trazado_70" data-name="Trazado 70" d="M1757.415,56.319a1.158,1.158,0,0,1,.585,1.134c-.02,2.026-.007,4.054-.009,6.081,0,.828-.27,1.1-1.1,1.1-.77,0-1.54-.012-2.31,0a4.828,4.828,0,0,0-4.857,4.663c-.081,1.85-.02,3.707-.02,5.561a.936.936,0,0,0,.054.192h.492q2.875,0,5.751,0c.9,0,1.15.248,1.151,1.142q0,3.017,0,6.033c0,.883-.267,1.143-1.161,1.143-2.073,0-4.146,0-6.293,0v19.944c0,1.062-.214,1.278-1.26,1.278h-5.845c-.954,0-1.21-.253-1.21-1.194q0-9.709,0-19.421v-.607h-1.441c-.958,0-1.917.008-2.875,0-.633-.008-.966-.312-.969-.905q-.015-3.253,0-6.506c0-.6.318-.895.961-.9,1.257-.011,2.514,0,3.771,0h.553c0-.238,0-.423,0-.607.023-2.058-.115-4.133.1-6.17a12.7,12.7,0,0,1,8.378-11.051,24.854,24.854,0,0,1,3.78-.907Z" fill="#a34773"/>
  </g>
</svg>
