<svg xmlns="http://www.w3.org/2000/svg" width="42.707" height="42.77" viewBox="0 0 42.707 42.77">
  <g id="Grupo_54" data-name="Grupo 54" transform="translate(-1648 -63.711)">
    <path id="Trazado_67" data-name="Trazado 67" d="M1675.817,106.481h-12.873c-.262-.023-.523-.059-.785-.066a24.216,24.216,0,0,1-5.059-.514,10.952,10.952,0,0,1-7.741-6.179,15.341,15.341,0,0,1-1.285-6.5c-.048-4.61-.09-9.22-.068-13.83a27.794,27.794,0,0,1,.561-6.6,10.93,10.93,0,0,1,6.777-7.965,16.486,16.486,0,0,1,6.1-1.038c4.346-.047,8.692-.084,13.038-.068a32.425,32.425,0,0,1,6.822.485,10.952,10.952,0,0,1,8.515,7.316,17.631,17.631,0,0,1,.875,6c.015,4.931.029,9.862-.011,14.792a28.788,28.788,0,0,1-.338,4.2,11.118,11.118,0,0,1-3.956,7.094,12.766,12.766,0,0,1-7.53,2.71C1677.844,106.381,1676.83,106.426,1675.817,106.481Zm-6.438-3.781,0-.066c1.128,0,2.258.034,3.385-.007,2.434-.088,4.886-.057,7.294-.362a6.974,6.974,0,0,0,6.314-5.6,18.649,18.649,0,0,0,.456-4.053q.116-5.952.073-11.907a56.682,56.682,0,0,0-.326-6.209,7.084,7.084,0,0,0-5.955-6.449,25.236,25.236,0,0,0-4.523-.408q-6.016-.088-12.035-.019a42.025,42.025,0,0,0-5.577.357,7.023,7.023,0,0,0-6.146,5.823,24.009,24.009,0,0,0-.413,4.269c-.073,3.453-.1,6.909-.062,10.362.026,2.392.087,4.793.321,7.172a7.073,7.073,0,0,0,3.6,5.7,9.25,9.25,0,0,0,4.359,1.151C1663.225,102.571,1666.3,102.624,1669.379,102.7Z" fill="#a34773"/>
    <path id="Trazado_68" data-name="Trazado 68" d="M1658.38,85.087a10.993,10.993,0,1,1,11,11A11,11,0,0,1,1658.38,85.087Zm11,7.123a7.122,7.122,0,1,0-7.123-7.111A7.1,7.1,0,0,0,1669.376,92.21Z" fill="#a34773"/>
    <path id="Trazado_69" data-name="Trazado 69" d="M1680.865,71.107a2.56,2.56,0,0,1-.119,5.119,2.56,2.56,0,1,1,.119-5.119Z" fill="#a34773"/>
  </g>
</svg>
